<svg version="1.1" class="logo" xmlns="http://www.w3.org/2000/svg" xmlns:xlink="http://www.w3.org/1999/xlink" viewBox="0 0 256 256" width="256" height="256">
<rect class="st0" style="fill:#66FFCC;" width="256" height="256"/>
<path class="st1" style="fill:#FFFFFF;" d="M56.4,97h9.5v39.4H85v7.9H56.4V97z"/>
<path class="st1" style="fill:#FFFFFF;" d="M89.3,126.5c0-12,8.3-18.9,17.2-18.9c9,0,17.2,6.9,17.2,18.9c0,11.8-8.3,18.8-17.2,18.8
	C97.6,145.3,89.3,138.4,89.3,126.5z M114.2,126.5c0-6.8-2.8-11.2-7.6-11.2c-4.9,0-7.6,4.4-7.6,11.2c0,6.7,2.8,11.1,7.6,11.1
	C111.4,137.6,114.2,133.2,114.2,126.5z"/>
<path class="st1" style="fill:#FFFFFF;" d="M129.3,150.7c0-3,1.9-5.6,5.1-7.4V143c-1.9-1.2-3.3-3.1-3.3-6c0-2.7,1.9-5.2,4-6.7V130
	c-2.4-1.8-4.7-5.2-4.7-9.3c0-8.4,6.8-13,14.5-13c2,0,3.9,0.4,5.4,0.9h12.9v6.9H157c1,1.2,1.7,3.2,1.7,5.4c0,8.1-6.1,12.2-13.8,12.2
	c-1.4,0-3.1-0.3-4.6-0.8c-1,0.8-1.5,1.7-1.5,3.1c0,1.9,1.4,2.9,5.6,2.9h6.1c8.6,0,13.3,2.7,13.3,9c0,7.2-7.5,12.7-19.5,12.7
	C135.8,159.9,129.3,157,129.3,150.7z M154.7,148.8c0-2.6-2.1-3.2-6-3.2h-4.4c-2.2,0-3.7-0.2-5-0.5c-1.6,1.3-2.4,2.7-2.4,4.2
	c0,3,3.3,4.7,8.6,4.7C151,154,154.7,151.6,154.7,148.8z M150.4,120.6c0-4.2-2.4-6.6-5.6-6.6c-3.2,0-5.6,2.4-5.6,6.6s2.5,6.6,5.6,6.6
	S150.4,124.9,150.4,120.6z"/>
<path class="st1" style="fill:#FFFFFF;" d="M166.4,126.5c0-12,8.3-18.9,17.2-18.9c9,0,17.2,6.9,17.2,18.9c0,11.8-8.3,18.8-17.2,18.8
	C174.6,145.3,166.4,138.4,166.4,126.5z M191.2,126.5c0-6.8-2.8-11.2-7.6-11.2c-4.9,0-7.6,4.4-7.6,11.2c0,6.7,2.8,11.1,7.6,11.1
	C188.5,137.6,191.2,133.2,191.2,126.5z"/>
</svg>